PathFileType	4	(X/Y/Z)	/Users/itak/Documents/Research/Walk-IL/dataset/trc/00432_00167.trc
DataRate	CameraRate	NumFrames	NumMarkers	Units	OrigDataRate	OrigDataStartFrame	OrigNumFrames
100.000000	100.000000	4	53	mm	100.000000	519	693
Frame#	Time	RPSI			LPSI			L3			STRN			T10			C7			CLAV			RBAK			LBAK			LSHO			LUPA			LAEL			LAOL			LWTS			LWPS			LFRA			LIFD			LHPS			LHTS			RSHO			RUPA			RAEL			RAOL			RWTS			RWPS			RFRA			RIFD			RHTS			RHPS			RBHD			LFHD			RFHD			LBHD			LHIP			RHIP			RASI			LASI			LKNE			LTHI			LANK			LTIP			LTOE			LMT1			LMT5			LHEE			RKNE			RTHI			RANK			RTIP			RTOE			RMT1			RMT5			RHEE			
		X1	Y1	Z1	X2	Y2	Z2	X3	Y3	Z3	X4	Y4	Z4	X5	Y5	Z5	X6	Y6	Z6	X7	Y7	Z7	X8	Y8	Z8	X9	Y9	Z9	X10	Y10	Z10	X11	Y11	Z11	X12	Y12	Z12	X13	Y13	Z13	X14	Y14	Z14	X15	Y15	Z15	X16	Y16	Z16	X17	Y17	Z17	X18	Y18	Z18	X19	Y19	Z19	X20	Y20	Z20	X21	Y21	Z21	X22	Y22	Z22	X23	Y23	Z23	X24	Y24	Z24	X25	Y25	Z25	X26	Y26	Z26	X27	Y27	Z27	X28	Y28	Z28	X29	Y29	Z29	X30	Y30	Z30	X31	Y31	Z31	X32	Y32	Z32	X33	Y33	Z33	X34	Y34	Z34	X35	Y35	Z35	X36	Y36	Z36	X37	Y37	Z37	X38	Y38	Z38	X39	Y39	Z39	X40	Y40	Z40	X41	Y41	Z41	X42	Y42	Z42	X43	Y43	Z43	X44	Y44	Z44	X45	Y45	Z45	X46	Y46	Z46	X47	Y47	Z47	X48	Y48	Z48	X49	Y49	Z49	X50	Y50	Z50	X51	Y51	Z51	X52	Y52	Z52	X53	Y53	Z53	

520	5.19	1028.423706054688	953.8805541992188	894.9789428710938	1132.312377929688	945.585205078125	797.0886840820312	1078.34521484375	1044.640747070312	872.48193359375	1290.707397460938	1231.126098632812	1051.968994140625	1066.68115234375	1168.189819335938	859.5411987304688	1113.514038085938	1433.146118164062	916.7242431640625	1267.077880859375	1345.728515625	1024.262573242188	1003.893310546875	1317.507202148438	947.7034301757812	1151.723022460938	1386.489868164062	820.210693359375	1281.151611328125	1405.543212890625	825.2451782226562	1331.190307617188	1292.524169921875	733.6285400390625	1372.99658203125	1084.412231445312	702.7477416992188	1273.203369140625	1058.896240234375	712.1001586914062	1445.629272460938	899.4226684570312	798.0104370117188	1441.390747070312	876.7997436523438	727.797119140625	1407.744873046875	1001.528442382812	711.8019409179688	1480.426879882812	734.7705078125	810.4602661132812	1460.290893554688	799.0339965820312	739.3675537109375	1479.247924804688	814.7693481445312	805.3563232421875	1068.048095703125	1404.491333007812	1086.015625	1001.932250976562	1348.413940429688	1131.967163085938	937.663818359375	1070.293823242188	1177.91845703125	918.4415283203125	1054.729248046875	1114.804321289062	1027.739379882812	864.8458251953125	1213.029541015625	941.2063598632812	853.4049682617188	1217.8046875	930.1011352539062	1012.678833007812	1189.769287109375	1019.071594238281	706.7009887695312	1224.105224609375	1027.750122070312	765.8276977539062	1235.285278320312	952.816650390625	765.58056640625	1229.790771484375	1133.751098632812	1628.847534179688	1036.556762695312	1333.152221679688	1638.992431640625	982.8737182617188	1260.211059570312	1642.599365234375	1090.562744140625	1219.448486328125	1629.424194335938	881.4281616210938	1312.97998046875	836.859375	825.2737426757812	995.1715698242188	846.3589477539062	1069.250610351562	1113.900024414062	877.7742919921875	1108.444580078125	1310.63427734375	878.4081420898438	947.6302490234375	1361.035400390625	431.7083740234375	958.0382690429688	1366.947021484375	582.4185180664062	920.23193359375	1324.683959960938	23.45344543457031	947.4122924804688	1371.38720703125	272.9972534179688	966.353271484375	1427.199829101562	28.00030708312988	1160.7431640625	1357.837036132812	36.59574508666992	1122.941284179688	1437.015380859375	32.64935302734375	1043.717651367188	1253.381103515625	27.5012149810791	942.114990234375	961.0047607421875	464.146728515625	1065.379272460938	1001.788146972656	711.5914916992188	1104.473999023438	697.4800415039062	192.8157653808594	849.8328247070312	871.7650146484375	356.1969604492188	1016.609985351562	816.4397583007812	24.38414764404297	858.7611694335938	812.1685791015625	77.65525054931641	818.4335327148438	732.390625	72.39453887939453	887.892822265625	699.3751831054688	255.1215057373047	798.25537109375	
521	5.2	1033.2431640625	954.8858032226562	897.3679809570312	1137.118408203125	946.63720703125	799.3875732421875	1083.774047851562	1045.905883789062	874.7644653320312	1295.946044921875	1232.168701171875	1054.663452148438	1072.349609375	1169.439331054688	861.8012084960938	1119.075439453125	1434.377685546875	919.0701904296875	1272.432739257812	1346.859008789062	1027.091674804688	1009.36279296875	1318.689086914062	949.830078125	1157.610473632812	1387.755737304688	822.6016845703125	1287.000732421875	1406.896606445312	828.1622314453125	1337.93115234375	1294.062133789062	736.792236328125	1381.9111328125	1086.901123046875	706.3273315429688	1282.549438476562	1059.439331054688	715.2413940429688	1458.716430664062	906.3966674804688	805.5247192382812	1455.46337890625	881.9075927734375	735.90087890625	1418.570556640625	1005.11474609375	717.0635986328125	1499.792724609375	743.7240600585938	822.36328125	1477.386108398438	805.2998046875	749.4378051757812	1495.585815429688	823.5455932617188	814.9922485351562	1073.209716796875	1405.737670898438	1088.122314453125	1007.226440429688	1349.519409179688	1134.073852539062	943.9700317382812	1071.40576171875	1181.09814453125	925.2421875	1055.08740234375	1118.045043945312	1035.928955078125	867.7494506835938	1219.261962890625	949.5088500976562	855.0801391601562	1222.749877929688	936.9146728515625	1013.827270507812	1193.356811523438	1029.398559570312	709.6932983398438	1233.157836914062	1036.96826171875	769.1091918945312	1243.409301757812	962.2490844726562	767.7105102539062	1236.53369140625	1139.060546875	1630.174438476562	1038.903686523438	1338.526733398438	1640.411254882812	985.5084228515625	1265.4248046875	1644.053588867188	1093.077026367188	1224.999267578125	1630.731689453125	883.80859375	1317.386108398438	837.2529907226562	827.143310546875	1000.638977050781	847.5487060546875	1072.282348632812	1119.348876953125	879.1207275390625	1110.702758789062	1315.869262695312	879.0768432617188	949.4982299804688	1362.945434570312	431.4385681152344	958.7069702148438	1369.772705078125	582.1986083984375	921.2077026367188	1324.659545898438	23.45639610290527	947.4065551757812	1372.479858398438	272.6732788085938	966.7847290039062	1427.112915039062	28.00270652770996	1160.72802734375	1357.7919921875	36.54434204101562	1122.931274414062	1436.945556640625	32.7400016784668	1043.705444335938	1253.325439453125	27.41804313659668	942.1368408203125	969.1725463867188	464.8940734863281	1071.9912109375	1008.234008789062	712.914794921875	1108.404663085938	707.7510986328125	193.7595520019531	854.602783203125	880.3536987304688	357.1297912597656	1022.536926269531	827.4515991210938	24.90677261352539	871.8090209960938	823.6484985351562	78.0477294921875	829.0198364257812	742.8516235351562	75.09187316894531	897.4989624023438	709.6403198242188	254.3847961425781	801.0978393554688	
522	5.21	1037.848388671875	955.7385864257812	899.7994384765625	1141.597290039062	947.5614624023438	801.6678466796875	1088.955932617188	1047.0546875	877.00146484375	1301.025146484375	1233.11279296875	1057.234008789062	1077.798828125	1170.595947265625	864.017333984375	1124.446533203125	1435.525146484375	921.3704833984375	1277.61865234375	1347.895874023438	1029.842895507812	1014.642822265625	1319.783325195312	951.9337768554688	1163.279296875	1388.944458007812	824.9207763671875	1292.635864257812	1408.157470703125	830.9917602539062	1344.440185546875	1295.479370117188	739.8876342773438	1390.544189453125	1089.308837890625	709.8920288085938	1291.65087890625	1059.8818359375	718.4370727539062	1471.373046875	913.3922119140625	812.887939453125	1469.098999023438	887.12353515625	743.8759155273438	1429.0625	1008.693237304688	722.2670288085938	1518.31201171875	752.9124145507812	833.9071655273438	1493.868041992188	811.782470703125	759.287109375	1511.250732421875	832.3994750976562	824.3685913085938	1078.228149414062	1406.87939453125	1090.191162109375	1012.3720703125	1350.565307617188	1136.1787109375	949.9800415039062	1072.436889648438	1184.144287109375	931.7672729492188	1055.411499023438	1121.159057617188	1043.732666015625	870.49072265625	1225.2275390625	957.4209594726562	856.6609497070312	1227.436401367188	943.4218139648438	1014.887634277344	1196.783935546875	1039.079467773438	712.5729370117188	1241.680908203125	1045.638305664062	772.1882934570312	1251.084594726562	971.1250610351562	769.7291870117188	1242.817504882812	1144.209716796875	1631.415283203125	1041.185546875	1343.743408203125	1641.70654296875	988.0931396484375	1270.466430664062	1645.386352539062	1095.52978515625	1230.39990234375	1631.942993164062	886.1360473632812	1321.513549804688	837.5775756835938	828.8467407226562	1005.942810058594	848.6271362304688	1075.410888671875	1124.74853515625	880.3914184570312	1112.900268554688	1320.864379882812	879.6755981445312	951.1845092773438	1364.889282226562	431.1785583496094	959.2987670898438	1372.52734375	582.0040283203125	922.0245971679688	1324.63916015625	23.448974609375	947.3961181640625	1373.587768554688	272.3457641601562	967.1651611328125	1427.046875	28.002685546875	1160.699096679688	1357.773681640625	36.51446914672852	1122.903198242188	1436.906372070312	32.80133056640625	1043.666625976562	1253.27490234375	27.34839820861816	942.1636352539062	977.3280029296875	465.6112060546875	1078.491577148438	1014.587890625	714.1446533203125	1112.379272460938	718.4026489257812	194.0505065917969	859.7442626953125	889.0459594726562	357.9360961914062	1028.404174804688	839.3385009765625	25.53305816650391	885.22705078125	835.64990234375	78.18235778808594	839.9745483398438	754.0283203125	77.47976684570312	907.6237182617188	720.093994140625	252.8771362304688	804.2056274414062	
523	5.22	1042.26171875	956.466796875	902.2813720703125	1145.781616210938	948.3720703125	803.9467163085938	1093.895629882812	1048.094604492188	879.2024536132812	1305.956176757812	1233.9716796875	1059.677734375	1083.03466796875	1171.6650390625	866.1882934570312	1129.637573242188	1436.59423828125	923.6176147460938	1282.640258789062	1348.8515625	1032.509765625	1019.744934082031	1320.796508789062	954.0095825195312	1168.727172851562	1390.060424804688	827.169677734375	1298.050659179688	1409.334716796875	833.720458984375	1350.706298828125	1296.794067382812	742.9011840820312	1398.883422851562	1091.634765625	713.4342651367188	1300.488525390625	1060.233154296875	721.6983032226562	1483.572387695312	920.3755493164062	820.0860595703125	1482.251708984375	892.4187622070312	751.7020263671875	1439.198974609375	1012.253662109375	727.402099609375	1535.934936523438	762.2398681640625	845.0441284179688	1509.67236328125	818.4251708984375	768.8812255859375	1526.205078125	841.2601928710938	833.4586791992188	1083.113647460938	1407.9248046875	1092.2314453125	1017.373657226562	1351.559936523438	1138.280883789062	955.716064453125	1073.402954101562	1187.090209960938	937.9943237304688	1055.726684570312	1124.171630859375	1051.165893554688	873.0643310546875	1230.86669921875	964.9605102539062	858.1461181640625	1231.90283203125	949.6411743164062	1015.87451171875	1200.084716796875	1048.184936523438	715.3192749023438	1249.615356445312	1053.833374023438	775.0625610351562	1258.246826171875	979.478271484375	771.6145629882812	1248.65673828125	1149.196411132812	1632.569702148438	1043.402099609375	1348.802856445312	1642.885009765625	990.6262817382812	1275.335571289062	1646.601806640625	1097.92236328125	1235.646362304688	1633.051879882812	888.4263305664062	1325.400512695312	837.8502197265625	830.4089965820312	1011.106750488281	849.5985717773438	1078.625732421875	1130.103759765625	881.604248046875	1115.051025390625	1325.642456054688	880.2186889648438	952.715087890625	1366.863647460938	430.9303894042969	959.834716796875	1375.210571289062	581.84716796875	922.7288818359375	1324.623413085938	23.43849563598633	947.3859252929688	1374.713989257812	272.0160522460938	967.5016479492188	1427.003662109375	28.00114631652832	1160.663818359375	1357.777954101562	36.50191879272461	1122.863037109375	1436.894897460938	32.83628463745117	1043.611450195312	1253.231689453125	27.29847145080566	942.2009887695312	985.4782104492188	466.3035888671875	1084.865356445312	1020.842834472656	715.2847900390625	1116.385986328125	729.3654174804688	193.6836242675781	865.2877197265625	897.82763671875	358.5785827636719	1034.2275390625	851.8492431640625	26.21045684814453	898.7626953125	848.0262451171875	78.01622009277344	851.1400756835938	765.7333984375	79.43953704833984	918.03466796875	730.7636108398438	250.6858215332031	807.7291259765625	
